<svg viewBox="0 0 100 100" xmlns="http://www.w3.org/2000/svg" xmlns:xlink="http://www.w3.org/1999/xlink">

    <style>:root>svg{display:none}:root>svg:target{display:block}</style>

    <svg id="logo" width="150" height="28" viewBox="0 0 150 28" fill="none" xmlns="http://www.w3.org/2000/svg">
        <g id="logo">
            <g id="Body">
                <path
                    d="M12.4062 22.0566C11.2771 22.0566 10.2575 21.8233 9.34728 21.3566C8.44581 20.8811 7.69313 20.2031 7.08923 19.3226C6.49409 18.4333 6.10462 17.3635 5.92082 16.1132H3.1639V21.6604H0V7.39623H3.1639V12.9434H5.92082C6.10462 11.6755 6.49846 10.6013 7.10236 9.72075C7.70626 8.83145 8.46769 8.15786 9.38667 7.7C10.3056 7.23333 11.334 7 12.4718 7C13.8721 7 15.0974 7.32579 16.1477 7.97736C17.198 8.62013 18.0163 9.50503 18.6027 10.6321C19.1891 11.7591 19.4823 13.0491 19.4823 14.5019C19.4823 15.9899 19.1847 17.3019 18.5895 18.4377C17.9944 19.5736 17.1673 20.4629 16.1083 21.1057C15.0493 21.7396 13.8152 22.0566 12.4062 22.0566ZM12.3799 19.0717C13.6402 19.0717 14.5811 18.6491 15.2025 17.8038C15.8239 16.9585 16.1346 15.8667 16.1346 14.5283C16.1346 13.1283 15.8195 12.0233 15.1893 11.2132C14.5679 10.3943 13.6315 9.9849 12.3799 9.9849C11.1371 9.9849 10.2137 10.3987 9.60985 11.2264C9.00595 12.0453 8.704 13.1371 8.704 14.5019C8.704 15.9019 9.0147 17.0157 9.6361 17.8434C10.2575 18.6623 11.1721 19.0717 12.3799 19.0717Z"
                    fill="#18181D"/>
                <path
                    d="M27.3352 22.0566C25.9523 22.0566 24.7927 21.7264 23.8562 21.066C22.9197 20.4057 22.2152 19.5075 21.7426 18.3717C21.27 17.227 21.0336 15.9459 21.0336 14.5283C21.0336 13.0931 21.27 11.8075 21.7426 10.6717C22.2152 9.53585 22.9066 8.64214 23.8168 7.99056C24.7358 7.33019 25.8692 7 27.217 7C28.5561 7 29.7158 7.33019 30.696 7.99056C31.685 8.64214 32.4508 9.53585 32.9934 10.6717C33.5361 11.7987 33.8074 13.0843 33.8074 14.5283C33.8074 15.9547 33.5404 17.2358 33.0066 18.3717C32.4727 19.5075 31.72 20.4057 30.7485 21.066C29.777 21.7264 28.6392 22.0566 27.3352 22.0566ZM20.4954 28V7.39623H23.2917V17.4075H23.6855V28H20.4954ZM26.8494 19.2038C27.6721 19.2038 28.3504 18.9969 28.8843 18.583C29.4182 18.1692 29.812 17.6101 30.0658 16.9057C30.3284 16.1925 30.4597 15.4 30.4597 14.5283C30.4597 13.6654 30.3284 12.8818 30.0658 12.1774C29.8033 11.4641 29.3963 10.9006 28.8449 10.4868C28.2935 10.0642 27.5934 9.85283 26.7444 9.85283C25.9392 9.85283 25.2828 10.0509 24.7752 10.4472C24.2676 10.8346 23.8912 11.3805 23.6462 12.0849C23.4098 12.7805 23.2917 13.595 23.2917 14.5283C23.2917 15.4528 23.4098 16.2673 23.6462 16.9717C23.8912 17.6761 24.2719 18.2264 24.7883 18.6226C25.3134 19.0101 26.0005 19.2038 26.8494 19.2038Z"
                    fill="#18181D"/>
                <path
                    d="M47.1512 7.39623V21.6604H44.1186V12.3491L37.3707 21.6604H34.8369V7.39623H37.8695V16.4698L44.6437 7.39623H47.1512Z"
                    fill="#18181D"/>
                <path
                    d="M55.1567 22.0566C53.6951 22.0566 52.4479 21.7308 51.4152 21.0792C50.3824 20.4189 49.5904 19.5208 49.039 18.3849C48.4963 17.2491 48.2206 15.9635 48.2119 14.5283C48.2206 13.0667 48.5051 11.7723 49.0652 10.6453C49.6341 9.50943 50.4393 8.62013 51.4808 7.97736C52.5223 7.32579 53.7608 7 55.1961 7C56.8065 7 58.1675 7.40943 59.279 8.2283C60.3993 9.03836 61.1301 10.1478 61.4714 11.5566L58.3206 12.4151C58.0756 11.6491 57.6686 11.0547 57.0997 10.6321C56.5308 10.2006 55.8831 9.9849 55.1567 9.9849C54.334 9.9849 53.6557 10.183 53.1218 10.5792C52.588 10.9667 52.1941 11.5038 51.9403 12.1906C51.6865 12.8774 51.5596 13.6566 51.5596 14.5283C51.5596 15.8843 51.8615 16.9805 52.4654 17.817C53.0693 18.6535 53.9664 19.0717 55.1567 19.0717C55.9969 19.0717 56.6577 18.878 57.1391 18.4906C57.6292 18.1031 57.9968 17.544 58.2418 16.8132L61.4714 17.5396C61.0338 18.9925 60.268 20.1107 59.174 20.8943C58.0799 21.6692 56.7409 22.0566 55.1567 22.0566Z"
                    fill="#18181D"/>
                <path d="M65.7194 21.6604V10.2226H60.9801V7.39623H73.6226V10.2226H68.8833V21.6604H65.7194Z"
                      fill="#18181D"/>
                <path
                    d="M74.2593 21.6604L74.2462 7.39623H77.41V12.1509H78.9986C79.3924 12.1509 79.8344 12.1597 80.3245 12.1774C80.8234 12.195 81.2391 12.2346 81.5717 12.2962C82.3681 12.4723 83.0464 12.7541 83.6066 13.1415C84.1755 13.5289 84.6087 14.0352 84.9063 14.6604C85.2038 15.2855 85.3526 16.0384 85.3526 16.9189C85.3526 18.178 85.0288 19.1862 84.3811 19.9434C83.7335 20.6918 82.8276 21.2025 81.6636 21.4755C81.3223 21.5547 80.8978 21.6075 80.3902 21.634C79.8825 21.6516 79.4318 21.6604 79.0379 21.6604H74.2593ZM77.41 19.1642H79.3136C79.5062 19.1642 79.7206 19.1553 79.9569 19.1377C80.1932 19.1201 80.4164 19.0805 80.6265 19.0189C81.0203 18.9132 81.3704 18.6755 81.6767 18.3057C81.983 17.927 82.1362 17.4648 82.1362 16.9189C82.1362 16.3465 81.983 15.8755 81.6767 15.5057C81.3704 15.1358 80.994 14.8937 80.5477 14.7792C80.3376 14.7264 80.1232 14.6912 79.9044 14.6736C79.6944 14.656 79.4974 14.6472 79.3136 14.6472H77.41V19.1642ZM86.8361 21.6604V7.39623H90V21.6604H86.8361Z"
                    fill="#18181D"/>
            </g>
            <g id="Group 9">
                <g id="Group 8">
                    <g id="Body_2">
                        <path
                            d="M106 20.6053L106.026 6.39474H109.257V13.2368L114.488 6.39474H118.474L112.925 13.5L118.95 20.6053H114.726L109.257 13.7632V20.6053H106Z"
                            fill="#45A7F5"/>
                        <path
                            d="M124.375 21C122.9 21 121.642 20.6754 120.601 20.0263C119.559 19.3684 118.76 18.4737 118.204 17.3421C117.657 16.2105 117.379 14.9298 117.37 13.5C117.379 12.0439 117.666 10.7544 118.231 9.63158C118.804 8.5 119.616 7.61403 120.667 6.97368C121.717 6.32456 122.967 6 124.414 6C126.039 6 127.411 6.40789 128.532 7.22368C129.662 8.0307 130.4 9.13596 130.744 10.5395L127.566 11.3947C127.319 10.6316 126.908 10.0395 126.334 9.61842C125.761 9.1886 125.107 8.97368 124.375 8.97368C123.545 8.97368 122.861 9.17105 122.322 9.56579C121.784 9.95175 121.386 10.4868 121.13 11.1711C120.874 11.8553 120.746 12.6316 120.746 13.5C120.746 14.8509 121.051 15.943 121.66 16.7763C122.269 17.6096 123.174 18.0263 124.375 18.0263C125.222 18.0263 125.889 17.8333 126.374 17.4474C126.868 17.0614 127.239 16.5044 127.486 15.7763L130.744 16.5C130.302 17.9474 129.53 19.0614 128.427 19.8421C127.323 20.614 125.972 21 124.375 21Z"
                            fill="#45A7F5"/>
                        <path d="M135.029 20.6053V9.21053H130.248V6.39474H143V9.21053H138.22V20.6053H135.029Z"
                              fill="#45A7F5"/>
                    </g>
                    <path id="Rectangle 10 (Stroke)" fill-rule="evenodd" clip-rule="evenodd"
                          d="M102.407 27C99.9732 27 98 25.0757 98 22.702L98 4.29796C98 1.92426 99.9732 -8.77108e-08 102.407 -1.95908e-07L106 -3.55604e-07L106 2.86531L102.407 2.86531C101.596 2.86531 100.938 3.50673 100.938 4.29796L100.938 22.702C100.938 23.4933 101.596 24.1347 102.407 24.1347L106 24.1347L106 27L102.407 27Z"
                          fill="#45A7F5"/>
                    <path id="Rectangle 11 (Stroke)" fill-rule="evenodd" clip-rule="evenodd"
                          d="M145.593 27C148.027 27 150 25.0757 150 22.702L150 4.29796C150 1.92426 148.027 -8.77122e-08 145.593 -1.95911e-07L142 -3.55609e-07L142 2.86531L145.593 2.86531C146.404 2.86531 147.062 3.50673 147.062 4.29796L147.062 22.702C147.062 23.4933 146.404 24.1347 145.593 24.1347L142 24.1347L142 27L145.593 27Z"
                          fill="#45A7F5"/>
                </g>
            </g>
        </g>
    </svg>

    <svg id="arrow-1" width="44" height="44" viewBox="0 0 44 44" fill="none" xmlns="http://www.w3.org/2000/svg">
        <path d="M0 22C0 9.84974 9.84974 0 22 0C34.1503 0 44 9.84974 44 22C44 34.1503 34.1503 44 22 44C9.84974 44 0 34.1503 0 22Z" fill="white"/>
        <path fill-rule="evenodd" clip-rule="evenodd" d="M19.0933 15.6925C19.3553 15.4678 19.7499 15.4982 19.9745 15.7603L24.9745 21.5936C25.1752 21.8276 25.1752 22.173 24.9745 22.4071L19.9745 28.2404C19.7499 28.5025 19.3553 28.5328 19.0933 28.3082C18.8312 28.0836 18.8008 27.689 19.0255 27.4269L23.6768 22.0003L19.0255 16.5737C18.8008 16.3117 18.8312 15.9171 19.0933 15.6925Z" fill="#45A7F5"/>
    </svg>

    <svg id="point" width="16" height="16" viewBox="0 0 16 16" fill="none" xmlns="http://www.w3.org/2000/svg">
        <path fill-rule="evenodd" clip-rule="evenodd" d="M7.99935 1.33301C5.05383 1.33301 2.66602 4.0014 2.66602 6.99967C2.66602 9.97446 4.36823 13.2079 7.02406 14.4493C7.64318 14.7387 8.35552 14.7387 8.97464 14.4493C11.6305 13.2079 13.3327 9.97446 13.3327 6.99967C13.3327 4.0014 10.9449 1.33301 7.99935 1.33301ZM7.99935 7.99967C8.73573 7.99967 9.33268 7.40272 9.33268 6.66634C9.33268 5.92996 8.73573 5.33301 7.99935 5.33301C7.26297 5.33301 6.66602 5.92996 6.66602 6.66634C6.66602 7.40272 7.26297 7.99967 7.99935 7.99967Z" fill="#888CA2"/>
    </svg>

    <svg id="clock" width="16" height="16" viewBox="0 0 16 16" fill="none" xmlns="http://www.w3.org/2000/svg">
        <path d="M14 7.5C14 11.0899 11.0899 14 7.5 14C3.91015 14 1 11.0899 1 7.5C1 3.91015 3.91015 1 7.5 1C11.0899 1 14 3.91015 14 7.5Z" fill="#888CA2"/>
        <path fill-rule="evenodd" clip-rule="evenodd" d="M7.5 4.4125C7.76924 4.4125 7.9875 4.63076 7.9875 4.9V7.29807L9.46971 8.78028C9.6601 8.97067 9.6601 9.27933 9.46971 9.46971C9.27933 9.6601 8.97067 9.6601 8.78028 9.46971L7.15529 7.84471C7.06386 7.75329 7.0125 7.62929 7.0125 7.5V4.9C7.0125 4.63076 7.23076 4.4125 7.5 4.4125Z" fill="white"/>
    </svg>

    <svg id="phone" width="16" height="16" viewBox="0 0 16 16" fill="none" xmlns="http://www.w3.org/2000/svg">
        <path d="M6.69108 3.54444L7.12375 4.31973C7.51422 5.01938 7.35747 5.93721 6.74249 6.55219C6.74249 6.55219 6.74249 6.55219 6.74249 6.55219C6.74237 6.55231 5.99664 7.29826 7.34903 8.65065C8.70076 10.0024 9.44667 9.258 9.44748 9.25719C9.4475 9.25716 9.44749 9.25717 9.44752 9.25715C10.0625 8.6422 10.9803 8.48546 11.6799 8.87592L12.4552 9.3086C13.5117 9.89821 13.6365 11.3798 12.7079 12.3085C12.1499 12.8665 11.4663 13.3006 10.7106 13.3293C9.43853 13.3775 7.2782 13.0556 5.11115 10.8885C2.9441 8.72147 2.62216 6.56114 2.67038 5.28905C2.69903 4.53339 3.13322 3.84982 3.69122 3.29181C4.61985 2.36318 6.10146 2.48795 6.69108 3.54444Z" fill="#888CA2"/>
    </svg>
</svg>
