<svg viewBox="0 0 100 100" xmlns="http://www.w3.org/2000/svg" xmlns:xlink="http://www.w3.org/1999/xlink">

    <style>:root>svg{display:none}:root>svg:target{display:block}</style>

    <svg id="logo" width="150" height="28" viewBox="0 0 150 28" fill="none" xmlns="http://www.w3.org/2000/svg">
        <g id="logo">
            <g id="Body">
                <path
                    d="M12.4062 22.0566C11.2771 22.0566 10.2575 21.8233 9.34728 21.3566C8.44581 20.8811 7.69313 20.2031 7.08923 19.3226C6.49409 18.4333 6.10462 17.3635 5.92082 16.1132H3.1639V21.6604H0V7.39623H3.1639V12.9434H5.92082C6.10462 11.6755 6.49846 10.6013 7.10236 9.72075C7.70626 8.83145 8.46769 8.15786 9.38667 7.7C10.3056 7.23333 11.334 7 12.4718 7C13.8721 7 15.0974 7.32579 16.1477 7.97736C17.198 8.62013 18.0163 9.50503 18.6027 10.6321C19.1891 11.7591 19.4823 13.0491 19.4823 14.5019C19.4823 15.9899 19.1847 17.3019 18.5895 18.4377C17.9944 19.5736 17.1673 20.4629 16.1083 21.1057C15.0493 21.7396 13.8152 22.0566 12.4062 22.0566ZM12.3799 19.0717C13.6402 19.0717 14.5811 18.6491 15.2025 17.8038C15.8239 16.9585 16.1346 15.8667 16.1346 14.5283C16.1346 13.1283 15.8195 12.0233 15.1893 11.2132C14.5679 10.3943 13.6315 9.9849 12.3799 9.9849C11.1371 9.9849 10.2137 10.3987 9.60985 11.2264C9.00595 12.0453 8.704 13.1371 8.704 14.5019C8.704 15.9019 9.0147 17.0157 9.6361 17.8434C10.2575 18.6623 11.1721 19.0717 12.3799 19.0717Z"
                    fill="#18181D"/>
                <path
                    d="M27.3352 22.0566C25.9523 22.0566 24.7927 21.7264 23.8562 21.066C22.9197 20.4057 22.2152 19.5075 21.7426 18.3717C21.27 17.227 21.0336 15.9459 21.0336 14.5283C21.0336 13.0931 21.27 11.8075 21.7426 10.6717C22.2152 9.53585 22.9066 8.64214 23.8168 7.99056C24.7358 7.33019 25.8692 7 27.217 7C28.5561 7 29.7158 7.33019 30.696 7.99056C31.685 8.64214 32.4508 9.53585 32.9934 10.6717C33.5361 11.7987 33.8074 13.0843 33.8074 14.5283C33.8074 15.9547 33.5404 17.2358 33.0066 18.3717C32.4727 19.5075 31.72 20.4057 30.7485 21.066C29.777 21.7264 28.6392 22.0566 27.3352 22.0566ZM20.4954 28V7.39623H23.2917V17.4075H23.6855V28H20.4954ZM26.8494 19.2038C27.6721 19.2038 28.3504 18.9969 28.8843 18.583C29.4182 18.1692 29.812 17.6101 30.0658 16.9057C30.3284 16.1925 30.4597 15.4 30.4597 14.5283C30.4597 13.6654 30.3284 12.8818 30.0658 12.1774C29.8033 11.4641 29.3963 10.9006 28.8449 10.4868C28.2935 10.0642 27.5934 9.85283 26.7444 9.85283C25.9392 9.85283 25.2828 10.0509 24.7752 10.4472C24.2676 10.8346 23.8912 11.3805 23.6462 12.0849C23.4098 12.7805 23.2917 13.595 23.2917 14.5283C23.2917 15.4528 23.4098 16.2673 23.6462 16.9717C23.8912 17.6761 24.2719 18.2264 24.7883 18.6226C25.3134 19.0101 26.0005 19.2038 26.8494 19.2038Z"
                    fill="#18181D"/>
                <path
                    d="M47.1512 7.39623V21.6604H44.1186V12.3491L37.3707 21.6604H34.8369V7.39623H37.8695V16.4698L44.6437 7.39623H47.1512Z"
                    fill="#18181D"/>
                <path
                    d="M55.1567 22.0566C53.6951 22.0566 52.4479 21.7308 51.4152 21.0792C50.3824 20.4189 49.5904 19.5208 49.039 18.3849C48.4963 17.2491 48.2206 15.9635 48.2119 14.5283C48.2206 13.0667 48.5051 11.7723 49.0652 10.6453C49.6341 9.50943 50.4393 8.62013 51.4808 7.97736C52.5223 7.32579 53.7608 7 55.1961 7C56.8065 7 58.1675 7.40943 59.279 8.2283C60.3993 9.03836 61.1301 10.1478 61.4714 11.5566L58.3206 12.4151C58.0756 11.6491 57.6686 11.0547 57.0997 10.6321C56.5308 10.2006 55.8831 9.9849 55.1567 9.9849C54.334 9.9849 53.6557 10.183 53.1218 10.5792C52.588 10.9667 52.1941 11.5038 51.9403 12.1906C51.6865 12.8774 51.5596 13.6566 51.5596 14.5283C51.5596 15.8843 51.8615 16.9805 52.4654 17.817C53.0693 18.6535 53.9664 19.0717 55.1567 19.0717C55.9969 19.0717 56.6577 18.878 57.1391 18.4906C57.6292 18.1031 57.9968 17.544 58.2418 16.8132L61.4714 17.5396C61.0338 18.9925 60.268 20.1107 59.174 20.8943C58.0799 21.6692 56.7409 22.0566 55.1567 22.0566Z"
                    fill="#18181D"/>
                <path d="M65.7194 21.6604V10.2226H60.9801V7.39623H73.6226V10.2226H68.8833V21.6604H65.7194Z"
                      fill="#18181D"/>
                <path
                    d="M74.2593 21.6604L74.2462 7.39623H77.41V12.1509H78.9986C79.3924 12.1509 79.8344 12.1597 80.3245 12.1774C80.8234 12.195 81.2391 12.2346 81.5717 12.2962C82.3681 12.4723 83.0464 12.7541 83.6066 13.1415C84.1755 13.5289 84.6087 14.0352 84.9063 14.6604C85.2038 15.2855 85.3526 16.0384 85.3526 16.9189C85.3526 18.178 85.0288 19.1862 84.3811 19.9434C83.7335 20.6918 82.8276 21.2025 81.6636 21.4755C81.3223 21.5547 80.8978 21.6075 80.3902 21.634C79.8825 21.6516 79.4318 21.6604 79.0379 21.6604H74.2593ZM77.41 19.1642H79.3136C79.5062 19.1642 79.7206 19.1553 79.9569 19.1377C80.1932 19.1201 80.4164 19.0805 80.6265 19.0189C81.0203 18.9132 81.3704 18.6755 81.6767 18.3057C81.983 17.927 82.1362 17.4648 82.1362 16.9189C82.1362 16.3465 81.983 15.8755 81.6767 15.5057C81.3704 15.1358 80.994 14.8937 80.5477 14.7792C80.3376 14.7264 80.1232 14.6912 79.9044 14.6736C79.6944 14.656 79.4974 14.6472 79.3136 14.6472H77.41V19.1642ZM86.8361 21.6604V7.39623H90V21.6604H86.8361Z"
                    fill="#18181D"/>
            </g>
            <g id="Group 9">
                <g id="Group 8">
                    <g id="Body_2">
                        <path
                            d="M106 20.6053L106.026 6.39474H109.257V13.2368L114.488 6.39474H118.474L112.925 13.5L118.95 20.6053H114.726L109.257 13.7632V20.6053H106Z"
                            fill="#45A7F5"/>
                        <path
                            d="M124.375 21C122.9 21 121.642 20.6754 120.601 20.0263C119.559 19.3684 118.76 18.4737 118.204 17.3421C117.657 16.2105 117.379 14.9298 117.37 13.5C117.379 12.0439 117.666 10.7544 118.231 9.63158C118.804 8.5 119.616 7.61403 120.667 6.97368C121.717 6.32456 122.967 6 124.414 6C126.039 6 127.411 6.40789 128.532 7.22368C129.662 8.0307 130.4 9.13596 130.744 10.5395L127.566 11.3947C127.319 10.6316 126.908 10.0395 126.334 9.61842C125.761 9.1886 125.107 8.97368 124.375 8.97368C123.545 8.97368 122.861 9.17105 122.322 9.56579C121.784 9.95175 121.386 10.4868 121.13 11.1711C120.874 11.8553 120.746 12.6316 120.746 13.5C120.746 14.8509 121.051 15.943 121.66 16.7763C122.269 17.6096 123.174 18.0263 124.375 18.0263C125.222 18.0263 125.889 17.8333 126.374 17.4474C126.868 17.0614 127.239 16.5044 127.486 15.7763L130.744 16.5C130.302 17.9474 129.53 19.0614 128.427 19.8421C127.323 20.614 125.972 21 124.375 21Z"
                            fill="#45A7F5"/>
                        <path d="M135.029 20.6053V9.21053H130.248V6.39474H143V9.21053H138.22V20.6053H135.029Z"
                              fill="#45A7F5"/>
                    </g>
                    <path id="Rectangle 10 (Stroke)" fill-rule="evenodd" clip-rule="evenodd"
                          d="M102.407 27C99.9732 27 98 25.0757 98 22.702L98 4.29796C98 1.92426 99.9732 -8.77108e-08 102.407 -1.95908e-07L106 -3.55604e-07L106 2.86531L102.407 2.86531C101.596 2.86531 100.938 3.50673 100.938 4.29796L100.938 22.702C100.938 23.4933 101.596 24.1347 102.407 24.1347L106 24.1347L106 27L102.407 27Z"
                          fill="#45A7F5"/>
                    <path id="Rectangle 11 (Stroke)" fill-rule="evenodd" clip-rule="evenodd"
                          d="M145.593 27C148.027 27 150 25.0757 150 22.702L150 4.29796C150 1.92426 148.027 -8.77122e-08 145.593 -1.95911e-07L142 -3.55609e-07L142 2.86531L145.593 2.86531C146.404 2.86531 147.062 3.50673 147.062 4.29796L147.062 22.702C147.062 23.4933 146.404 24.1347 145.593 24.1347L142 24.1347L142 27L145.593 27Z"
                          fill="#45A7F5"/>
                </g>
            </g>
        </g>
    </svg>

    <svg id="arrow-1" width="44" height="44" viewBox="0 0 44 44" fill="none" xmlns="http://www.w3.org/2000/svg">
        <path d="M0 22C0 9.84974 9.84974 0 22 0C34.1503 0 44 9.84974 44 22C44 34.1503 34.1503 44 22 44C9.84974 44 0 34.1503 0 22Z" fill="white"/>
        <path fill-rule="evenodd" clip-rule="evenodd" d="M19.0933 15.6925C19.3553 15.4678 19.7499 15.4982 19.9745 15.7603L24.9745 21.5936C25.1752 21.8276 25.1752 22.173 24.9745 22.4071L19.9745 28.2404C19.7499 28.5025 19.3553 28.5328 19.0933 28.3082C18.8312 28.0836 18.8008 27.689 19.0255 27.4269L23.6768 22.0003L19.0255 16.5737C18.8008 16.3117 18.8312 15.9171 19.0933 15.6925Z" fill="#45A7F5"/>
    </svg>

    <svg id="point" width="16" height="16" viewBox="0 0 16 16" fill="none" xmlns="http://www.w3.org/2000/svg">
        <path fill-rule="evenodd" clip-rule="evenodd" d="M7.99935 1.33301C5.05383 1.33301 2.66602 4.0014 2.66602 6.99967C2.66602 9.97446 4.36823 13.2079 7.02406 14.4493C7.64318 14.7387 8.35552 14.7387 8.97464 14.4493C11.6305 13.2079 13.3327 9.97446 13.3327 6.99967C13.3327 4.0014 10.9449 1.33301 7.99935 1.33301ZM7.99935 7.99967C8.73573 7.99967 9.33268 7.40272 9.33268 6.66634C9.33268 5.92996 8.73573 5.33301 7.99935 5.33301C7.26297 5.33301 6.66602 5.92996 6.66602 6.66634C6.66602 7.40272 7.26297 7.99967 7.99935 7.99967Z" fill="#888CA2"/>
    </svg>

    <svg id="clock" width="16" height="16" viewBox="0 0 16 16" fill="none" xmlns="http://www.w3.org/2000/svg">
        <path d="M14 7.5C14 11.0899 11.0899 14 7.5 14C3.91015 14 1 11.0899 1 7.5C1 3.91015 3.91015 1 7.5 1C11.0899 1 14 3.91015 14 7.5Z" fill="#888CA2"/>
        <path fill-rule="evenodd" clip-rule="evenodd" d="M7.5 4.4125C7.76924 4.4125 7.9875 4.63076 7.9875 4.9V7.29807L9.46971 8.78028C9.6601 8.97067 9.6601 9.27933 9.46971 9.46971C9.27933 9.6601 8.97067 9.6601 8.78028 9.46971L7.15529 7.84471C7.06386 7.75329 7.0125 7.62929 7.0125 7.5V4.9C7.0125 4.63076 7.23076 4.4125 7.5 4.4125Z" fill="white"/>
    </svg>

    <svg id="phone" width="16" height="16" viewBox="0 0 16 16" fill="none" xmlns="http://www.w3.org/2000/svg">
        <path d="M6.69108 3.54444L7.12375 4.31973C7.51422 5.01938 7.35747 5.93721 6.74249 6.55219C6.74249 6.55219 6.74249 6.55219 6.74249 6.55219C6.74237 6.55231 5.99664 7.29826 7.34903 8.65065C8.70076 10.0024 9.44667 9.258 9.44748 9.25719C9.4475 9.25716 9.44749 9.25717 9.44752 9.25715C10.0625 8.6422 10.9803 8.48546 11.6799 8.87592L12.4552 9.3086C13.5117 9.89821 13.6365 11.3798 12.7079 12.3085C12.1499 12.8665 11.4663 13.3006 10.7106 13.3293C9.43853 13.3775 7.2782 13.0556 5.11115 10.8885C2.9441 8.72147 2.62216 6.56114 2.67038 5.28905C2.69903 4.53339 3.13322 3.84982 3.69122 3.29181C4.61985 2.36318 6.10146 2.48795 6.69108 3.54444Z" fill="#888CA2"/>
    </svg>

    <svg id="button-plus" width="44" height="44" viewBox="0 0 44 44" fill="none" xmlns="http://www.w3.org/2000/svg">
        <path d="M0 22C0 9.84974 9.84974 0 22 0C34.1503 0 44 9.84974 44 22C44 34.1503 34.1503 44 22 44C9.84974 44 0 34.1503 0 22Z" fill="white"/>
        <path d="M13.25 22H30.75" stroke="#45A7F5" stroke-width="1.5" stroke-linecap="round" stroke-linejoin="round"/>
        <path d="M22 30.75L22 13.25" stroke="#45A7F5" stroke-width="1.5" stroke-linecap="round" stroke-linejoin="round"/>
    </svg>

    <svg id="bag" width="44" height="44" viewBox="0 0 44 44" fill="none" xmlns="http://www.w3.org/2000/svg">
        <path d="M35.2727 10.23H34.5394L28.3427 4.03336C27.8477 3.53836 27.041 3.53836 26.5277 4.03336C26.0327 4.52836 26.0327 5.33503 26.5277 5.84836L30.9094 10.23H13.0893L17.471 5.84836C17.966 5.35336 17.966 4.54669 17.471 4.03336C16.976 3.53836 16.1693 3.53836 15.656 4.03336L9.47768 10.23H8.74435C7.09435 10.23 3.66602 10.23 3.66602 14.9234C3.66602 16.7017 4.03268 17.875 4.80268 18.645C5.24268 19.1034 5.77435 19.3417 6.34268 19.47C6.87435 19.5984 7.44268 19.6167 7.99268 19.6167H36.006C36.5743 19.6167 37.106 19.58 37.6194 19.47C39.1594 19.1034 40.3327 18.0034 40.3327 14.9234C40.3327 10.23 36.9044 10.23 35.2727 10.23Z" fill="#9094A8"/>
        <path d="M34.9242 22H8.92756C7.79089 22 6.92923 23.0083 7.11256 24.1267L8.65256 33.55C9.16589 36.7033 10.5409 40.3333 16.6459 40.3333H26.9309C33.1092 40.3333 34.2092 37.235 34.8692 33.77L36.7209 24.1817C36.9409 23.045 36.0792 22 34.9242 22ZM19.4509 33.825C19.4509 34.54 18.8826 35.1083 18.1859 35.1083C17.4709 35.1083 16.9026 34.54 16.9026 33.825V27.775C16.9026 27.0783 17.4709 26.4917 18.1859 26.4917C18.8826 26.4917 19.4509 27.0783 19.4509 27.775V33.825ZM27.2976 33.825C27.2976 34.54 26.7292 35.1083 26.0142 35.1083C25.3176 35.1083 24.7309 34.54 24.7309 33.825V27.775C24.7309 27.0783 25.3176 26.4917 26.0142 26.4917C26.7292 26.4917 27.2976 27.0783 27.2976 27.775V33.825Z" fill="#9094A8"/>
    </svg>

    <svg id="bank" width="44" height="44" viewBox="0 0 44 44" fill="none" xmlns="http://www.w3.org/2000/svg">
        <path d="M40.3327 34.8333V40.3333H3.66602V34.8333C3.66602 33.825 4.49102 33 5.49935 33H38.4994C39.5077 33 40.3327 33.825 40.3327 34.8333Z" fill="#9094A8" stroke="#9094A8" stroke-width="1.5" stroke-miterlimit="10" stroke-linecap="round" stroke-linejoin="round"/>
        <path d="M12.8327 20.167H9.16602V33.0003H12.8327V20.167Z" fill="#9094A8"/>
        <path d="M20.1667 20.167H16.5V33.0003H20.1667V20.167Z" fill="#9094A8"/>
        <path d="M27.5007 20.167H23.834V33.0003H27.5007V20.167Z" fill="#9094A8"/>
        <path d="M34.8327 20.167H31.166V33.0003H34.8327V20.167Z" fill="#9094A8"/>
        <path d="M42.1673 41.708H1.83398C1.08232 41.708 0.458984 41.0847 0.458984 40.333C0.458984 39.5813 1.08232 38.958 1.83398 38.958H42.1673C42.919 38.958 43.5423 39.5813 43.5423 40.333C43.5423 41.0847 42.919 41.708 42.1673 41.708Z" fill="#9094A8"/>
        <path d="M39.1777 10.542L22.6777 3.94203C22.311 3.79536 21.6877 3.79536 21.321 3.94203L4.82102 10.542C4.17935 10.7987 3.66602 11.5504 3.66602 12.247V18.3337C3.66602 19.342 4.49102 20.167 5.49935 20.167H38.4994C39.5077 20.167 40.3327 19.342 40.3327 18.3337V12.247C40.3327 11.5504 39.8194 10.7987 39.1777 10.542ZM21.9993 15.5837C20.4777 15.5837 19.2493 14.3554 19.2493 12.8337C19.2493 11.312 20.4777 10.0837 21.9993 10.0837C23.521 10.0837 24.7493 11.312 24.7493 12.8337C24.7493 14.3554 23.521 15.5837 21.9993 15.5837Z" fill="#9094A8"/>
    </svg>

    <svg id="book" width="44" height="44" viewBox="0 0 44 44" fill="none" xmlns="http://www.w3.org/2000/svg">
        <path d="M40.3333 8.89142V30.6898C40.3333 32.4681 38.885 34.0998 37.1067 34.3198L36.5383 34.3931C33.5317 34.7964 29.2967 36.0431 25.8867 37.4731C24.695 37.9681 23.375 37.0698 23.375 35.7681V10.2664C23.375 9.58809 23.76 8.96475 24.365 8.63475C27.72 6.81975 32.7983 5.20642 36.245 4.91309H36.355C38.555 4.91309 40.3333 6.69142 40.3333 8.89142Z" fill="#9094A8"/>
        <path d="M19.6351 8.63475C16.2801 6.81975 11.2018 5.20642 7.7551 4.91309H7.62677C5.42677 4.91309 3.64844 6.69142 3.64844 8.89142V30.6898C3.64844 32.4681 5.09677 34.0998 6.8751 34.3198L7.44344 34.3931C10.4501 34.7964 14.6851 36.0431 18.0951 37.4731C19.2868 37.9681 20.6068 37.0698 20.6068 35.7681V10.2664C20.6068 9.56975 20.2401 8.96475 19.6351 8.63475ZM9.16677 14.1898H13.2918C14.0434 14.1898 14.6668 14.8131 14.6668 15.5648C14.6668 16.3348 14.0434 16.9398 13.2918 16.9398H9.16677C8.4151 16.9398 7.79177 16.3348 7.79177 15.5648C7.79177 14.8131 8.4151 14.1898 9.16677 14.1898ZM14.6668 22.4398H9.16677C8.4151 22.4398 7.79177 21.8348 7.79177 21.0648C7.79177 20.3131 8.4151 19.6898 9.16677 19.6898H14.6668C15.4184 19.6898 16.0418 20.3131 16.0418 21.0648C16.0418 21.8348 15.4184 22.4398 14.6668 22.4398Z" fill="#9094A8"/>
    </svg>

    <svg id="judge" width="44" height="44" viewBox="0 0 44 44" fill="none" xmlns="http://www.w3.org/2000/svg">
        <path d="M37.657 34.907C37.382 35.182 37.0337 35.3103 36.6853 35.3103C36.337 35.3103 35.9887 35.182 35.7137 34.907L26.6387 25.832L27.6103 24.8603L28.582 23.8887L37.657 32.9637C38.1887 33.4953 38.1887 34.3753 37.657 34.907Z" fill="#9094A8"/>
        <path d="M11.8618 17.0132L22.4952 27.6465C23.2102 28.3615 23.2102 29.5165 22.4952 30.2315L20.8452 31.8998C19.3602 33.3665 17.0135 33.3665 15.5468 31.8998L7.59016 23.9432C6.14182 22.4948 6.14182 20.1298 7.59016 18.6632L9.25849 16.9948C9.97349 16.2982 11.1468 16.2982 11.8618 17.0132Z" fill="#9094A8"/>
        <path d="M34.0822 18.6821L27.0972 25.6487C26.3639 26.3821 25.1905 26.3821 24.4572 25.6487L13.8605 15.0521C13.1272 14.3187 13.1272 13.1454 13.8605 12.4121L20.8455 5.42707C22.2939 3.97874 24.6589 3.97874 26.1255 5.42707L34.0822 13.3837C35.5305 14.8504 35.5305 17.1971 34.0822 18.6821Z" fill="#9094A8"/>
        <path d="M14.666 39.875H3.66602C2.91435 39.875 2.29102 39.2517 2.29102 38.5C2.29102 37.7483 2.91435 37.125 3.66602 37.125H14.666C15.4177 37.125 16.041 37.7483 16.041 38.5C16.041 39.2517 15.4177 39.875 14.666 39.875Z" fill="#9094A8"/>
    </svg>

    <svg id="home" width="44" height="44" viewBox="0 0 44 44" fill="none" xmlns="http://www.w3.org/2000/svg">
        <path d="M40.3327 38.958H38.4994V18.2963C38.4994 17.1597 37.986 16.0963 37.0877 15.3997L34.8327 13.6397L34.796 9.14799C34.796 8.13966 33.971 7.33299 32.9627 7.33299H26.711L24.2543 5.42633C22.9343 4.38133 21.0644 4.38133 19.7444 5.42633L6.91102 15.3997C6.01268 16.0963 5.49935 17.1597 5.49935 18.278L5.40768 38.958H3.66602C2.91435 38.958 2.29102 39.5813 2.29102 40.333C2.29102 41.0847 2.91435 41.708 3.66602 41.708H40.3327C41.0844 41.708 41.7077 41.0847 41.7077 40.333C41.7077 39.5813 41.0844 38.958 40.3327 38.958ZM11.916 23.3747V20.6247C11.916 19.6163 12.741 18.7913 13.7493 18.7913H17.416C18.4243 18.7913 19.2493 19.6163 19.2493 20.6247V23.3747C19.2493 24.383 18.4243 25.208 17.416 25.208H13.7493C12.741 25.208 11.916 24.383 11.916 23.3747ZM26.5827 38.958H17.416V33.9163C17.416 32.3947 18.6444 31.1663 20.166 31.1663H23.8327C25.3543 31.1663 26.5827 32.3947 26.5827 33.9163V38.958ZM32.0827 23.3747C32.0827 24.383 31.2577 25.208 30.2493 25.208H26.5827C25.5744 25.208 24.7493 24.383 24.7493 23.3747V20.6247C24.7493 19.6163 25.5744 18.7913 26.5827 18.7913H30.2493C31.2577 18.7913 32.0827 19.6163 32.0827 20.6247V23.3747Z" fill="#9094A8"/>
    </svg>

    <svg id="family" width="44" height="44" viewBox="0 0 44 44" fill="none" xmlns="http://www.w3.org/2000/svg">
        <g clip-path="url(#clip0_617_601)">
            <path d="M11.0009 2.41602C6.9103 2.41602 3.57812 5.73966 3.57812 9.83883C3.57812 13.938 6.71429 17.0997 10.8135 17.2446C10.9413 17.2276 11.0606 17.2276 11.1543 17.2446H11.2651C15.262 17.0997 18.4067 13.8528 18.4238 9.83883C18.4238 5.73966 15.0916 2.41602 11.0009 2.41602Z" fill="#9094A8"/>
            <path d="M21.7312 28.0508C21.7312 28.0508 21.8164 28.0593 21.859 28.0593C21.8164 28.0593 21.7653 28.0593 21.7227 28.0678C21.7227 28.0678 21.7255 28.0621 21.7312 28.0508Z" fill="#9094A8"/>
            <path d="M22.2779 28.0508C22.2779 28.0508 22.2693 28.0593 22.2779 28.0678C22.2523 28.0593 22.2267 28.0593 22.2012 28.0593C22.2267 28.0593 22.2523 28.0593 22.2779 28.0508Z" fill="#9094A8"/>
            <path d="M27.6362 22.4261C27.6276 25.4515 25.284 27.9059 22.2757 28.0508C22.2502 28.0593 22.2246 28.0593 22.199 28.0593H22.1223C22.0456 28.0422 21.9519 28.0422 21.8581 28.0593C21.8155 28.0593 21.7729 28.0593 21.7303 28.0508C18.6794 27.8803 16.3613 25.4345 16.3613 22.4261C16.3613 21.6677 16.5147 20.9433 16.7874 20.2785C17.6311 18.2332 19.6509 16.793 22.003 16.793C24.3551 16.793 26.3749 18.2417 27.2101 20.2871C27.4828 20.9433 27.6362 21.6677 27.6362 22.4261Z" fill="#9094A8"/>
            <path d="M32.997 2.41602C28.9064 2.41602 25.5742 5.73966 25.5742 9.83883C25.5742 13.938 28.7189 17.0997 32.8095 17.2446C32.9374 17.2276 33.0567 17.2276 33.1504 17.2446H33.2612C37.2581 17.0997 40.4028 13.8528 40.4199 9.83883C40.4199 5.74819 37.0962 2.41602 32.997 2.41602Z" fill="#9094A8"/>
            <path d="M17.0188 28.9189C16.1325 29.2428 15.3144 29.6518 14.5644 30.1461C13.1668 31.0836 12.1441 32.2937 11.5816 33.6487C11.3856 33.6573 11.1981 33.6573 11.0021 33.6573C8.13016 33.6573 5.24966 32.9243 3.06798 31.4585C1.09936 30.1461 0 28.365 0 26.439C0 24.513 1.09936 22.7233 3.08503 21.3938C6.13597 19.3741 10.4908 18.7605 14.3258 19.5445C13.9934 20.4394 13.8059 21.4109 13.8059 22.425C13.8059 25.0839 15.0587 27.4275 17.0188 28.9189Z" fill="#9094A8"/>
            <path d="M30.3565 36.0779C30.3565 37.5523 29.5299 38.9073 28.03 39.9129C26.3681 41.0293 24.1865 41.5833 22.0048 41.5833C19.8231 41.5833 17.6329 41.0293 15.9711 39.9129C14.4797 38.9158 13.6445 37.5608 13.6445 36.1035C13.6445 35.0468 14.0792 34.0411 14.8888 33.1889C15.1956 32.8566 15.562 32.5498 15.9796 32.2685C17.0704 31.5442 18.3829 31.0584 19.772 30.8112H19.7805C20.4964 30.6834 21.2293 30.6152 21.9707 30.6152H22.0133C22.7462 30.6152 23.4791 30.6749 24.195 30.8027H24.2035C25.6097 31.0499 26.9391 31.5356 28.03 32.2685C28.4561 32.5498 28.8225 32.8566 29.1293 33.1889C29.9219 34.0326 30.348 35.0297 30.3565 36.0779Z" fill="#9094A8"/>
            <path d="M43.9991 26.4144C43.9991 28.349 42.9082 30.1301 40.9396 31.4596C38.7494 32.9254 35.8774 33.6583 32.997 33.6583C32.8009 33.6583 32.6049 33.6583 32.4174 33.6498C31.8635 32.2862 30.8494 31.0675 29.4517 30.1386C28.7103 29.6529 27.8836 29.2353 27.0059 28.92C28.9404 27.4286 30.1846 25.0765 30.1932 22.4261C30.1932 21.4119 30.0057 20.4489 29.6733 19.5541C33.5253 18.753 37.8972 19.3666 40.9396 21.3949C42.9082 22.7073 43.982 24.4884 43.9991 26.4144Z" fill="#9094A8"/>
        </g>
        <defs>
            <clipPath id="clip0_617_601">
                <rect width="44" height="39.1679" fill="white" transform="translate(0 2.41602)"/>
            </clipPath>
        </defs>
    </svg>

    <svg id="criminal" width="44" height="44" viewBox="0 0 44 44" fill="none" xmlns="http://www.w3.org/2000/svg">
        <g clip-path="url(#clip0_617_5236)">
            <path d="M37.3861 22.9272V19.7788C37.3861 18.7164 36.5169 17.8472 35.4545 17.8472H34.9137V16.611C34.9137 9.50288 29.1383 3.72754 22.0302 3.72754C18.5727 3.72754 15.3277 5.07963 12.9326 7.5327C10.5761 9.92783 9.28197 13.1342 9.28197 16.4951V17.8472H8.54798C7.48563 17.8472 6.61643 18.7164 6.61643 19.7788V22.9272C3.75773 24.5111 1.82617 27.5436 1.82617 31.0397C1.82617 36.1197 5.9597 40.2725 11.059 40.2725H11.1556C16.2549 40.2725 20.4077 36.1197 20.4077 31.0397C20.4077 27.5629 18.4762 24.5111 15.6175 22.9465V19.7788C15.6175 18.7164 14.7483 17.8472 13.6859 17.8472H12.9906V16.6883C12.9519 14.1966 13.8598 11.8787 15.5788 10.121C17.2786 8.4019 19.5578 7.43612 22.0302 7.43612C27.0909 7.43612 31.2051 11.5696 31.2051 16.611V17.8472H30.3166C29.2542 17.8472 28.385 18.7164 28.385 19.7788V22.9465C25.5263 24.5111 23.5948 27.5629 23.5948 31.0397C23.5948 36.1197 27.7476 40.2725 32.8469 40.2725H32.9435C38.0428 40.2725 42.1763 36.1197 42.1763 31.0397C42.1763 27.5436 40.2448 24.5111 37.3861 22.9272ZM16.1776 31.0397C16.1776 33.8018 13.937 36.0424 11.1556 36.0424C8.37414 36.0424 6.13354 33.8018 6.13354 31.0397C6.13354 28.2776 8.39346 26.0177 11.1556 26.0177C13.9177 26.0177 16.1776 28.2583 16.1776 31.0397ZM12.3145 23.1783C11.9861 23.468 11.5805 23.6419 11.1169 23.6419C10.6534 23.6419 10.2284 23.468 9.90007 23.1783C9.55239 22.8886 9.3206 22.4443 9.28197 21.9614C9.28197 21.9035 9.28197 21.8455 9.28197 21.7876C9.28197 20.7638 10.1125 19.9333 11.1363 19.9333C12.16 19.9333 12.9712 20.7638 12.9712 21.7876C12.9712 21.8455 12.9712 21.9035 12.9519 21.9614C12.9133 22.4636 12.6815 22.8886 12.3338 23.1783H12.3145ZM32.9435 19.9333C33.9479 19.9333 34.7785 20.7638 34.7785 21.7876C34.7785 21.8455 34.7785 21.9228 34.7592 21.9807C34.6626 22.9079 33.89 23.6419 32.9435 23.6419C31.997 23.6419 31.1858 22.9079 31.1085 21.9614C31.0892 21.9035 31.0892 21.8455 31.0892 21.7876C31.0892 20.7638 31.9198 19.9333 32.9435 19.9333ZM32.9435 36.0424C30.1621 36.0424 27.9215 33.8018 27.9215 31.0397C27.9215 28.2776 30.1621 26.0177 32.9435 26.0177C35.7249 26.0177 37.9462 28.2583 37.9462 31.0397C37.9462 33.8211 35.7056 36.0424 32.9435 36.0424Z" fill="#9094A8"/>
        </g>
        <defs>
            <clipPath id="clip0_617_5236">
                <rect width="40.3502" height="36.545" fill="white" transform="translate(1.82617 3.72754)"/>
            </clipPath>
        </defs>
    </svg>

    <svg id="car" width="44" height="44" viewBox="0 0 44 44" fill="none" xmlns="http://www.w3.org/2000/svg">
        <path d="M39.875 14.6668C39.875 15.4185 39.2517 16.0418 38.5 16.0418H5.5C4.74833 16.0418 4.125 15.4185 4.125 14.6668C4.125 13.9151 4.74833 13.2918 5.5 13.2918H7.37L8.06667 9.97348C8.72667 6.76514 10.1017 3.81348 15.565 3.81348H28.435C33.8983 3.81348 35.2733 6.76514 35.9333 9.97348L36.63 13.2918H38.5C39.2517 13.2918 39.875 13.9151 39.875 14.6668Z" fill="#9094A8"/>
        <path d="M40.6636 25.0437C40.3886 22.0187 39.5819 18.792 33.6969 18.792H10.3036C4.41857 18.792 3.63024 22.0187 3.33691 25.0437L2.31024 36.2087C2.18191 37.602 2.64024 38.9953 3.59357 40.0403C4.56524 41.1037 5.94024 41.7087 7.40691 41.7087H10.8536C13.8236 41.7087 14.3919 40.0037 14.7586 38.8853L15.1252 37.7853C15.5469 36.5203 15.6569 36.2087 17.3069 36.2087H26.6936C28.3436 36.2087 28.3986 36.392 28.8752 37.7853L29.2419 38.8853C29.6086 40.0037 30.1769 41.7087 33.1469 41.7087H36.5936C38.0419 41.7087 39.4352 41.1037 40.4069 40.0403C41.3602 38.9953 41.8186 37.602 41.6902 36.2087L40.6636 25.0437ZM16.5002 28.8753H11.0002C10.2486 28.8753 9.62524 28.252 9.62524 27.5003C9.62524 26.7487 10.2486 26.1253 11.0002 26.1253H16.5002C17.2519 26.1253 17.8752 26.7487 17.8752 27.5003C17.8752 28.252 17.2519 28.8753 16.5002 28.8753ZM33.0002 28.8753H27.5002C26.7486 28.8753 26.1252 28.252 26.1252 27.5003C26.1252 26.7487 26.7486 26.1253 27.5002 26.1253H33.0002C33.7519 26.1253 34.3752 26.7487 34.3752 27.5003C34.3752 28.252 33.7519 28.8753 33.0002 28.8753Z" fill="#9094A8"/>
    </svg>

    <svg id="heart" width="44" height="44" viewBox="0 0 44 44" fill="none" xmlns="http://www.w3.org/2000/svg">
        <path fill-rule="evenodd" clip-rule="evenodd" d="M20.8011 8.43434C18.9823 6.73171 16.534 5.68359 13.8593 5.68359C8.23102 5.68359 3.66602 10.2669 3.66602 15.9319C3.66602 18.1136 4.01435 20.1303 4.61935 22.0003C7.51602 31.1669 16.4443 36.6486 20.8627 38.1519C20.9326 38.1766 21.0076 38.1985 21.0865 38.2176L23.805 31.7612L19.3119 27.6425C18.3262 26.7389 18.4877 25.1412 19.6344 24.4532L24.9645 21.2551L19.6175 15.0855C19.1548 14.5517 19.0081 13.8134 19.2315 13.1432L20.8011 8.43434ZM23.3096 38.0916C27.7842 36.5062 36.5201 31.0484 39.3793 22.0003C39.9843 20.1303 40.3327 18.1136 40.3327 15.9319C40.3327 10.2669 35.7677 5.68359 30.1394 5.68359C27.2473 5.68359 24.6198 6.90908 22.7666 8.86242L21.1289 13.7757L26.4759 19.9453C27.2898 20.8844 27.0592 22.3307 25.9935 22.9701L20.6634 26.1682L25.1565 30.2869C25.7793 30.8578 25.9762 31.7586 25.6483 32.5373L23.3096 38.0916Z" fill="#9094A8"/>
    </svg>

    <svg id="brief" width="44" height="44" viewBox="0 0 44 44" fill="none" xmlns="http://www.w3.org/2000/svg">
        <path d="M38.6649 12.7968C37.1066 11.0735 34.5032 10.2118 30.7266 10.2118H30.2866V10.1385C30.2866 7.05845 30.2866 3.24512 23.3932 3.24512H20.6066C13.7132 3.24512 13.7132 7.07678 13.7132 10.1385V10.2301H13.2732C9.47824 10.2301 6.89324 11.0918 5.33491 12.8151C3.51991 14.8318 3.57491 17.5451 3.75824 19.3968L3.77657 19.5251L3.93736 21.2134C3.95163 21.3632 4.03198 21.4982 4.15763 21.5809C4.551 21.84 5.43703 22.4174 5.93991 22.6968C6.19657 22.8618 6.47157 23.0085 6.74657 23.1551C9.88157 24.8785 13.3282 26.0335 16.8299 26.6018C16.9949 28.3251 17.7466 30.3418 21.7616 30.3418C25.7766 30.3418 26.5649 28.3435 26.6932 26.5651C30.4332 25.9601 34.0449 24.6584 37.3082 22.7518C37.4182 22.6968 37.4916 22.6418 37.5832 22.5868C38.3629 22.1461 39.1739 21.5957 39.9004 21.066C40.013 20.9839 40.0853 20.858 40.1007 20.7195L40.1499 20.2768L40.2416 19.4151C40.2599 19.3051 40.2599 19.2134 40.2782 19.0851C40.4249 17.2334 40.3882 14.7035 38.6649 12.7968ZM23.9982 25.3551C23.9982 27.2985 23.9982 27.5918 21.7432 27.5918C19.4882 27.5918 19.4882 27.2435 19.4882 25.3735V23.0634H23.9982V25.3551ZM16.3349 10.2118V10.1385C16.3349 7.02178 16.3349 5.86678 20.6066 5.86678H23.3932C27.6649 5.86678 27.6649 7.04012 27.6649 10.1385V10.2301H16.3349V10.2118Z" fill="#9094A8"/>
        <path d="M38.9438 24.8544C39.2964 24.6839 39.7001 24.9651 39.6647 25.355L38.9391 33.348C38.5541 37.0147 37.0507 40.7547 28.9841 40.7547H15.0141C6.94739 40.7547 5.44406 37.0147 5.05906 33.3663L4.36835 25.7685C4.33331 25.383 4.72803 25.1023 5.07971 25.2639C6.94513 26.1213 11.661 28.2289 14.2917 28.8689C14.4568 28.9091 14.5906 29.0263 14.657 29.1826C15.7248 31.6963 18.1758 33.0363 21.7607 33.0363C25.3101 33.0363 27.7944 31.6448 28.8643 29.1279C28.9308 28.9714 29.0644 28.8542 29.2296 28.814C32.0166 28.1354 37.0047 25.7921 38.9438 24.8544Z" fill="#9094A8"/>
    </svg>

    <svg id="key" width="44" height="44" viewBox="0 0 44 44" fill="none" xmlns="http://www.w3.org/2000/svg">
        <path d="M36.2819 7.73691C30.8552 2.32858 22.0552 2.32858 16.6652 7.73691C12.8702 11.4952 11.7335 16.9036 13.2002 21.6702L4.58352 30.2869C3.97852 30.9102 3.55685 32.1386 3.68519 33.0186L4.23519 37.0153C4.43685 38.3353 5.66519 39.5819 6.98519 39.7653L10.9819 40.3152C11.8619 40.4436 13.0902 40.0402 13.7135 39.3986L15.2169 37.8952C15.5835 37.5469 15.5835 36.9602 15.2169 36.5936L11.6602 33.0369C11.1285 32.5052 11.1285 31.6252 11.6602 31.0936C12.1919 30.5619 13.0719 30.5619 13.6035 31.0936L17.1785 34.6686C17.5269 35.0169 18.1135 35.0169 18.4619 34.6686L22.3485 30.8002C27.0969 32.2852 32.5052 31.1302 36.2819 27.3719C41.6902 21.9636 41.6902 13.1452 36.2819 7.73691ZM26.5835 22.0002C24.0535 22.0002 22.0002 19.9469 22.0002 17.4169C22.0002 14.8869 24.0535 12.8336 26.5835 12.8336C29.1135 12.8336 31.1669 14.8869 31.1669 17.4169C31.1669 19.9469 29.1135 22.0002 26.5835 22.0002Z" fill="#9094A8"/>
    </svg>

    <svg id="star" width="44" height="44" viewBox="0 0 44 44" fill="none" xmlns="http://www.w3.org/2000/svg">
        <path d="M25.171 6.43484L28.3977 12.8882C28.8377 13.7865 30.011 14.6482 31.001 14.8132L36.8493 15.7848C40.5893 16.4082 41.4693 19.1215 38.7743 21.7982L34.2277 26.3448C33.4577 27.1148 33.036 28.5998 33.2743 29.6632L34.576 35.2915C35.6027 39.7465 33.2377 41.4698 29.296 39.1415L23.8143 35.8965C22.8243 35.3098 21.1927 35.3098 20.1843 35.8965L14.7027 39.1415C10.7793 41.4698 8.39601 39.7282 9.42268 35.2915L10.7243 29.6632C10.9627 28.5998 10.541 27.1148 9.77101 26.3448L5.22434 21.7982C2.54768 19.1215 3.40935 16.4082 7.14935 15.7848L12.9977 14.8132C13.9693 14.6482 15.1427 13.7865 15.5827 12.8882L18.8093 6.43484C20.5693 2.93318 23.4293 2.93318 25.171 6.43484Z" fill="#9094A8"/>
    </svg>

    <svg id="taxes" width="44" height="44" viewBox="0 0 44 44" fill="none" xmlns="http://www.w3.org/2000/svg">
        <path d="M21.9993 3.66699C11.8793 3.66699 3.66602 11.8803 3.66602 22.0003C3.66602 32.1203 11.8793 40.3337 21.9993 40.3337C32.1194 40.3337 40.3327 32.1203 40.3327 22.0003C40.3327 11.8803 32.1194 3.66699 21.9993 3.66699ZM16.0043 14.0437C17.4893 14.0437 18.7177 15.2537 18.7177 16.757C18.7177 18.242 17.5077 19.4703 16.0043 19.4703C14.5193 19.4703 13.291 18.2603 13.291 16.757C13.291 15.2537 14.501 14.0437 16.0043 14.0437ZM16.2243 28.967C15.9494 29.242 15.601 29.3703 15.2527 29.3703C14.9043 29.3703 14.556 29.242 14.281 28.967C13.7493 28.4353 13.7493 27.5553 14.281 27.0237L26.2894 15.0153C26.821 14.4837 27.701 14.4837 28.2327 15.0153C28.7643 15.547 28.7643 16.427 28.2327 16.9587L16.2243 28.967ZM27.9944 29.957C26.5093 29.957 25.281 28.747 25.281 27.2437C25.281 25.7587 26.491 24.5303 27.9944 24.5303C29.4794 24.5303 30.7077 25.7403 30.7077 27.2437C30.7077 28.747 29.4977 29.957 27.9944 29.957Z" fill="#9094A8"/>
    </svg>

    <svg id="tree" width="44" height="44" viewBox="0 0 44 44" fill="none" xmlns="http://www.w3.org/2000/svg">
        <path d="M29.6451 18.4429H14.3551C12.1918 18.4429 11.4401 16.9946 12.7051 15.2346L20.3501 4.52793C21.2484 3.2446 22.7518 3.2446 23.6501 4.52793L31.2951 15.2346C32.5601 16.9946 31.8084 18.4429 29.6451 18.4429Z" fill="#9094A8"/>
        <path d="M32.2486 33H11.7519C8.85524 33 7.86524 31.075 9.57024 28.7284L16.8852 18.4434H27.1152L34.4302 28.7284C36.1352 31.075 35.1452 33 32.2486 33Z" fill="#9094A8"/>
        <path d="M23.375 33V40.3333C23.375 41.085 22.7517 41.7083 22 41.7083C21.2483 41.7083 20.625 41.085 20.625 40.3333V33H23.375Z" fill="#9094A8"/>
    </svg>

    <svg id="people" width="44" height="44" viewBox="0 0 44 44" fill="none" xmlns="http://www.w3.org/2000/svg">
        <path d="M16.4993 3.66699C11.696 3.66699 7.79102 7.57199 7.79102 12.3753C7.79102 17.087 11.476 20.9003 16.2793 21.0653C16.426 21.047 16.5727 21.047 16.6827 21.0653C16.7193 21.0653 16.7377 21.0653 16.7743 21.0653C16.7927 21.0653 16.7927 21.0653 16.811 21.0653C21.5043 20.9003 25.1893 17.087 25.2077 12.3753C25.2077 7.57199 21.3027 3.66699 16.4993 3.66699Z" fill="#9094A8"/>
        <path d="M25.8138 25.9413C20.6987 22.5313 12.3571 22.5313 7.20542 25.9413C4.87708 27.4996 3.59375 29.608 3.59375 31.863C3.59375 34.118 4.87708 36.208 7.18708 37.748C9.75375 39.4713 13.1271 40.333 16.5004 40.333C19.8738 40.333 23.2471 39.4713 25.8138 37.748C28.1238 36.1896 29.4071 34.0996 29.4071 31.8263C29.3888 29.5713 28.1238 27.4813 25.8138 25.9413Z" fill="#9094A8"/>
        <path d="M36.6491 13.4562C36.9425 17.0129 34.4125 20.1295 30.9108 20.5512C30.8925 20.5512 30.8925 20.5512 30.8741 20.5512H30.8191C30.7091 20.5512 30.5991 20.5512 30.5075 20.5879C28.7291 20.6795 27.0975 20.1112 25.8691 19.0662C27.7575 17.3795 28.8391 14.8495 28.6191 12.0995C28.4908 10.6145 27.9775 9.25787 27.2075 8.10287C27.9041 7.75453 28.7108 7.53453 29.5358 7.4612C33.1291 7.14953 36.3375 9.8262 36.6491 13.4562Z" fill="#9094A8"/>
        <path d="M40.3151 30.4151C40.1684 32.1934 39.0318 33.7334 37.1251 34.7784C35.2918 35.7867 32.9818 36.2634 30.6901 36.2084C32.0101 35.0167 32.7801 33.5317 32.9268 31.9551C33.1101 29.6817 32.0284 27.5001 29.8651 25.7584C28.6368 24.7867 27.2068 24.0167 25.6484 23.4484C29.7001 22.2751 34.7968 23.0634 37.9318 25.5934C39.6184 26.9501 40.4801 28.6551 40.3151 30.4151Z" fill="#9094A8"/>
    </svg>

    <svg id="old" width="44" height="44" viewBox="0 0 44 44" fill="none" xmlns="http://www.w3.org/2000/svg">
        <g clip-path="url(#clip0_617_5224)">
            <path d="M13.6764 41.9997C12.7548 41.9997 12.0098 41.2547 12.0098 40.333V25.7497C12.0098 24.828 12.7548 24.083 13.6764 24.083C14.5981 24.083 15.3431 24.828 15.3431 25.7497V40.333C15.3431 41.2547 14.5981 41.9997 13.6764 41.9997Z" fill="#9094A8"/>
            <path d="M23.6758 12C20.9191 12 18.6758 9.75667 18.6758 7C18.6758 4.24333 20.9191 2 23.6758 2C26.4324 2 28.6758 4.24333 28.6758 7C28.6758 9.75667 26.4324 12 23.6758 12Z" fill="#9094A8"/>
            <path d="M29.2096 42.0003H23.6662C22.7462 42.0003 21.9996 41.2537 21.9996 40.3337V23.2503L18.7396 25.702C18.0829 26.287 17.2796 26.6603 16.4112 26.7853L13.8346 27.1587C12.9596 27.287 12.0679 27.0237 11.3979 26.442C10.7246 25.857 10.3379 25.0103 10.3379 24.1153C10.3379 22.947 10.9846 21.8937 12.0246 21.3703L16.6646 19.0287C16.9696 18.8753 17.2279 18.6453 17.4162 18.3603L18.2596 17.087C19.6729 14.952 22.0646 13.667 24.6262 13.667H26.4912C27.6496 13.667 28.7412 14.0987 29.5596 14.882C32.2362 17.4337 33.5429 21.7537 33.6696 28.477C33.7046 30.3603 33.1662 32.1953 32.1112 33.7887L31.5962 34.5653C30.8546 35.6853 30.4579 36.9987 30.4579 38.342V40.752C30.4596 41.4403 29.8996 42.0003 29.2096 42.0003Z" fill="#9094A8"/>
        </g>
        <defs>
            <clipPath id="clip0_617_5224">
                <rect width="40" height="40" fill="white" transform="translate(2 2)"/>
            </clipPath>
        </defs>
    </svg>

    <svg id="pills" width="44" height="44" viewBox="0 0 44 44" fill="none" xmlns="http://www.w3.org/2000/svg">
        <path fill-rule="evenodd" clip-rule="evenodd" d="M5.93555 22.8311H15.9339V15.051C15.9339 12.29 13.6957 10.0518 10.9347 10.0518C8.17376 10.0518 5.93555 12.29 5.93555 15.0509V22.8311ZM18.6839 22.8311V30.6115V30.6118C18.6839 34.8916 15.2145 38.361 10.9347 38.361C6.65498 38.361 3.18555 34.8916 3.18555 30.6118V30.6115V22.8311V15.0509C3.18555 10.7712 6.65498 7.30176 10.9347 7.30176C15.2145 7.30176 18.6839 10.7712 18.6839 15.051V22.8311Z" fill="#9094A8"/>
        <path fill-rule="evenodd" clip-rule="evenodd" d="M34.4275 20.5684L26.2132 26.2688L30.6489 32.6605C32.223 34.9288 35.3379 35.4915 37.6062 33.9174C39.8745 32.3433 40.4372 29.2284 38.8631 26.9601L34.4275 20.5684ZM20.3266 11.6239C17.7883 14.228 17.3656 18.3467 19.5163 21.4459L23.9522 27.8379L23.954 27.8367L28.3896 34.2284C30.8296 37.7444 35.658 38.6167 39.174 36.1767C42.6901 33.7367 43.5624 28.9083 41.1224 25.3923L32.2506 12.6082C29.8106 9.09214 24.9822 8.21985 21.4662 10.6599C21.0487 10.9496 20.6684 11.273 20.3266 11.6239Z" fill="#9094A8"/>
    </svg>

</svg>
